<svg xmlns="http://www.w3.org/2000/svg" xmlns:xlink="http://www.w3.org/1999/xlink" width="24" height="24" viewBox="0 0 24 24">
  <defs>
    <clipPath id="clip-path">
      <path id="Path_27" data-name="Path 27" d="M24,0V24H0V0Z" fill="#fff"/>
    </clipPath>
  </defs>
  <g id="iconfinder_ic_copyright_48px_3669366" clip-path="url(#clip-path)">
    <path id="Path_26" data-name="Path 26" d="M14,4A10,10,0,1,0,24,14,10,10,0,0,0,14,4Zm0,18a8,8,0,1,1,8-8A8.011,8.011,0,0,1,14,22Zm-1.92-9.135a2.634,2.634,0,0,1,.3-.87,1.739,1.739,0,0,1,.59-.615,1.717,1.717,0,0,1,.895-.23,1.674,1.674,0,0,1,.65.13,1.579,1.579,0,0,1,.855.89,1.95,1.95,0,0,1,.135.64H17.3a3.578,3.578,0,0,0-.275-1.29,2.993,2.993,0,0,0-.7-1.01,3.1,3.1,0,0,0-1.08-.655,4,4,0,0,0-1.4-.235,3.959,3.959,0,0,0-1.695.335,3.381,3.381,0,0,0-1.2.92,3.868,3.868,0,0,0-.715,1.355A5.643,5.643,0,0,0,10,13.865v.275a5.654,5.654,0,0,0,.235,1.64,3.8,3.8,0,0,0,.715,1.35,3.4,3.4,0,0,0,1.2.915,4,4,0,0,0,1.7.335,3.7,3.7,0,0,0,1.32-.23,3.519,3.519,0,0,0,1.08-.635,3.052,3.052,0,0,0,.74-.94,2.765,2.765,0,0,0,.3-1.15h-1.79a1.424,1.424,0,0,1-.15.58,1.4,1.4,0,0,1-.36.455,1.682,1.682,0,0,1-.525.3,1.85,1.85,0,0,1-.6.1,1.745,1.745,0,0,1-.9-.235,1.766,1.766,0,0,1-.6-.62,2.623,2.623,0,0,1-.3-.875A5.9,5.9,0,0,1,12,14.14v-.275a6,6,0,0,1,.08-1Z" transform="translate(-2 -2)" fill="#fff"/>
  </g>
</svg>
