<svg width="113" height="21" viewBox="0 0 113 21" fill="black" xmlns="http://www.w3.org/2000/svg">
<path d="M1.98047 19H0.980469V20H1.98047V19ZM1.98047 1.9375V0.9375H0.980469V1.9375H1.98047ZM13.3711 5.72266L12.4801 6.17676L12.4825 6.1813L13.3711 5.72266ZM14.3203 9.89453L15.3203 9.89453L15.3203 9.88956L14.3203 9.89453ZM13.3828 15.2148L12.4942 14.7562L12.4919 14.7607L13.3828 15.2148ZM10.7227 18.0039L10.2335 17.1317L10.231 17.1331L10.7227 18.0039ZM6.70312 19L6.70313 20.0001L6.71333 19.9999L6.70312 19ZM4.23047 3.78906V2.78906H3.23047V3.78906H4.23047ZM4.23047 17.1602H3.23047V18.1602H4.23047V17.1602ZM10.6406 15.543L9.89679 14.8746L9.89411 14.8776L10.6406 15.543ZM10.7227 5.42969L9.95715 6.07316L9.96223 6.07911L10.7227 5.42969ZM6.85547 3.78906L6.86481 2.78906H6.85547V3.78906ZM2.98047 19V1.9375H0.980469V19H2.98047ZM1.98047 2.9375H6.79688V0.9375H1.98047V2.9375ZM6.79688 2.9375C8.12906 2.9375 9.26541 3.23041 10.2357 3.78865L11.2331 2.0551C9.92209 1.30084 8.43344 0.9375 6.79688 0.9375V2.9375ZM10.2357 3.78865C11.2026 4.34496 11.9479 5.13249 12.4801 6.17675L14.262 5.26856C13.5599 3.89095 12.5474 2.81129 11.2331 2.0551L10.2357 3.78865ZM12.4825 6.1813C13.0247 7.23194 13.3132 8.46295 13.3203 9.89951L15.3203 9.88956C15.3118 8.18549 14.9674 6.63524 14.2597 5.26401L12.4825 6.1813ZM13.3203 9.89453V10.9844H15.3203V9.89453H13.3203ZM13.3203 10.9844C13.3203 12.463 13.0338 13.7106 12.4942 14.7562L14.2714 15.6735C14.9818 14.2972 15.3203 12.7245 15.3203 10.9844H13.3203ZM12.4919 14.7607C11.962 15.8004 11.2129 16.5824 10.2335 17.1317L11.2118 18.8761C12.5449 18.1285 13.5693 17.0512 14.2738 15.6689L12.4919 14.7607ZM10.231 17.1331C9.2517 17.6861 8.08275 17.9859 6.69292 18.0001L6.71333 19.9999C8.386 19.9829 9.89673 19.6186 11.2143 18.8747L10.231 17.1331ZM6.70312 18H1.98047V20H6.70312V18ZM3.23047 3.78906V17.1602H5.23047V3.78906H3.23047ZM4.23047 18.1602H6.59766V16.1602H4.23047V18.1602ZM6.59766 18.1602C8.55473 18.1602 10.1985 17.5419 11.3871 16.2083L9.89411 14.8776C9.16085 15.7003 8.10933 16.1602 6.59766 16.1602V18.1602ZM11.3845 16.2113C12.5712 14.8906 13.0938 13.0835 13.0938 10.9375H11.0938C11.0938 12.7759 10.6476 14.0391 9.8968 14.8746L11.3845 16.2113ZM13.0938 10.9375V9.94141H11.0938V10.9375H13.0938ZM13.0938 9.94141C13.0938 7.8553 12.6014 6.0897 11.4831 4.78027L9.96223 6.07911C10.6721 6.9103 11.0938 8.15251 11.0938 9.94141H13.0938ZM11.4881 4.78624C10.3584 3.44227 8.76851 2.8069 6.86481 2.78911L6.84612 4.78902C8.28618 4.80248 9.27438 5.26085 9.95717 6.07314L11.4881 4.78624ZM6.85547 2.78906H4.23047V4.78906H6.85547V2.78906ZM27.375 11.1133V12.1133H28.375V11.1133H27.375ZM19.9805 11.1133V10.1133H18.9805V11.1133H19.9805ZM19.9805 17.1602H18.9805V18.1602H19.9805V17.1602ZM28.5703 17.1602H29.5703V16.1602H28.5703V17.1602ZM28.5703 19V20H29.5703V19H28.5703ZM17.7305 19H16.7305V20H17.7305V19ZM17.7305 1.9375V0.9375H16.7305V1.9375H17.7305ZM28.4531 1.9375H29.4531V0.9375H28.4531V1.9375ZM28.4531 3.78906V4.78906H29.4531V3.78906H28.4531ZM19.9805 3.78906V2.78906H18.9805V3.78906H19.9805ZM19.9805 9.27344H18.9805V10.2734H19.9805V9.27344ZM27.375 9.27344H28.375V8.27344H27.375V9.27344ZM27.375 10.1133H19.9805V12.1133H27.375V10.1133ZM18.9805 11.1133V17.1602H20.9805V11.1133H18.9805ZM19.9805 18.1602H28.5703V16.1602H19.9805V18.1602ZM27.5703 17.1602V19H29.5703V17.1602H27.5703ZM28.5703 18H17.7305V20H28.5703V18ZM18.7305 19V1.9375H16.7305V19H18.7305ZM17.7305 2.9375H28.4531V0.9375H17.7305V2.9375ZM27.4531 1.9375V3.78906H29.4531V1.9375H27.4531ZM28.4531 2.78906H19.9805V4.78906H28.4531V2.78906ZM18.9805 3.78906V9.27344H20.9805V3.78906H18.9805ZM19.9805 10.2734H27.375V8.27344H19.9805V10.2734ZM26.375 9.27344V11.1133H28.375V9.27344H26.375ZM36.3984 11.3945L36.6764 10.4339L36.6747 10.4334L36.3984 11.3945ZM32.1797 9.35547L31.4992 10.0883L31.506 10.0945L32.1797 9.35547ZM32.4727 3.02734L33.1056 3.80155L33.1062 3.80105L32.4727 3.02734ZM39.7969 2.38281L39.3527 3.27877L39.3558 3.28026L39.7969 2.38281ZM41.9297 4.25781L41.0826 4.78932L41.0864 4.79522L41.9297 4.25781ZM42.6914 6.87109V7.87109H43.6914V6.87109H42.6914ZM40.4297 6.87109H39.4297V7.87109H40.4297V6.87109ZM39.4453 4.44531L38.7744 5.18686L38.7793 5.19125L39.4453 4.44531ZM34.0664 4.29297L34.6838 5.07963L34.6851 5.07861L34.0664 4.29297ZM34.0195 8.08984L33.3824 8.86059L33.388 8.86519L33.3936 8.86971L34.0195 8.08984ZM37.0312 9.40234L36.76 10.3649L36.7614 10.3653L37.0312 9.40234ZM40.3594 10.7266L39.8399 11.5811L39.8498 11.587L40.3594 10.7266ZM42.1406 12.4023L41.2822 12.9153L41.2868 12.923L42.1406 12.4023ZM41.1094 17.9922L41.7185 18.7852L41.7221 18.7825L41.1094 17.9922ZM33.5039 18.5664L33.0965 19.4797L33.1023 19.4822L33.5039 18.5664ZM31.1484 16.7148L30.3292 17.2883L30.3331 17.2938L31.1484 16.7148ZM30.3281 14.0547V13.0547H29.3281V14.0547H30.3281ZM32.5898 14.0547H33.5898V13.0547H32.5898V14.0547ZM33.7266 16.5039L33.1048 17.2872L33.1137 17.2941L33.7266 16.5039ZM39.5859 12.7539L38.9676 13.5399L38.9742 13.545L39.5859 12.7539ZM36.6747 10.4334C34.8049 9.89598 33.5702 9.2698 32.8533 8.61642L31.506 10.0945C32.5548 11.0505 34.1326 11.7837 36.1222 12.3556L36.6747 10.4334ZM32.8601 8.62268C32.1876 7.9982 31.8672 7.26315 31.8672 6.35547H29.8672C29.8672 7.82278 30.4218 9.08774 31.4992 10.0883L32.8601 8.62268ZM31.8672 6.35547C31.8672 5.32165 32.2598 4.49296 33.1056 3.80155L31.8397 2.25313C30.5448 3.31173 29.8672 4.70178 29.8672 6.35547H31.8672ZM33.1062 3.80105C33.9669 3.09629 35.1246 2.70312 36.668 2.70312V0.703125C34.7738 0.703125 33.1347 1.19277 31.8391 2.25364L33.1062 3.80105ZM36.668 2.70312C37.7087 2.70312 38.5959 2.90359 39.3527 3.27877L40.241 1.48686C39.1697 0.95578 37.971 0.703125 36.668 0.703125V2.70312ZM39.3558 3.28026C40.1268 3.65926 40.6903 4.16408 41.0826 4.7893L42.7768 3.72632C42.1691 2.7578 41.3107 2.01261 40.238 1.48536L39.3558 3.28026ZM41.0864 4.79522C41.4918 5.43146 41.6914 6.1161 41.6914 6.87109H43.6914C43.6914 5.73546 43.3832 4.67792 42.773 3.7204L41.0864 4.79522ZM42.6914 5.87109H40.4297V7.87109H42.6914V5.87109ZM41.4297 6.87109C41.4297 5.60885 41.0172 4.50818 40.1113 3.69937L38.7793 5.19125C39.1859 5.55432 39.4297 6.07084 39.4297 6.87109H41.4297ZM40.1162 3.70378C39.2199 2.89277 38.0231 2.55469 36.668 2.55469V4.55469C37.7034 4.55469 38.3583 4.81035 38.7744 5.18685L40.1162 3.70378ZM36.668 2.55469C35.4212 2.55469 34.307 2.83063 33.4477 3.50733L34.6851 5.07861C35.0758 4.77094 35.696 4.55469 36.668 4.55469V2.55469ZM33.449 3.5063C32.5626 4.20196 32.1406 5.18303 32.1406 6.32031H34.1406C34.1406 5.72322 34.3358 5.35273 34.6838 5.07963L33.449 3.5063ZM32.1406 6.32031C32.1406 7.34403 32.591 8.20639 33.3824 8.86059L34.6567 7.3191C34.2762 7.00455 34.1406 6.68722 34.1406 6.32031H32.1406ZM33.3936 8.86971C34.1497 9.47658 35.3145 9.95755 36.76 10.3649L37.3025 8.43982C35.9199 8.05026 35.0769 7.65624 34.6455 7.30998L33.3936 8.86971ZM36.7614 10.3653C38.1403 10.7516 39.1526 11.1633 39.84 11.5811L40.8788 9.87204C39.9724 9.32111 38.766 8.84993 37.3011 8.43943L36.7614 10.3653ZM39.8498 11.587C40.5467 11.9997 41.0039 12.4496 41.2822 12.9153L42.999 11.8894C42.5117 11.0739 41.7814 10.4065 40.8689 9.86614L39.8498 11.587ZM41.2868 12.923C41.5677 13.3836 41.7266 13.9514 41.7266 14.6641H43.7266C43.7266 13.6423 43.4948 12.7023 42.9944 11.8817L41.2868 12.923ZM41.7266 14.6641C41.7266 15.7427 41.3266 16.5584 40.4966 17.2019L41.7221 18.7825C43.0484 17.7541 43.7266 16.3511 43.7266 14.6641H41.7266ZM40.5002 17.1991C39.6464 17.855 38.4415 18.2344 36.7852 18.2344V20.2344C38.7382 20.2344 40.4161 19.7856 41.7185 18.7852L40.5002 17.1991ZM36.7852 18.2344C35.7435 18.2344 34.7874 18.0373 33.9055 17.6506L33.1023 19.4822C34.2517 19.9862 35.483 20.2344 36.7852 20.2344V18.2344ZM33.9113 17.6532C33.0326 17.2611 32.3992 16.7492 31.9638 16.1359L30.3331 17.2938C31.007 18.243 31.944 18.9655 33.0965 19.4796L33.9113 17.6532ZM31.9677 16.1414C31.5434 15.5353 31.3281 14.8505 31.3281 14.0547H29.3281C29.3281 15.2432 29.6597 16.3319 30.3292 17.2883L31.9677 16.1414ZM30.3281 15.0547H32.5898V13.0547H30.3281V15.0547ZM31.5898 14.0547C31.5898 15.3679 32.0905 16.4819 33.1048 17.2871L34.3483 15.7207C33.847 15.3228 33.5898 14.804 33.5898 14.0547H31.5898ZM33.1137 17.2941C34.1029 18.0612 35.3597 18.3945 36.7852 18.3945V16.3945C35.6637 16.3945 34.8815 16.1341 34.3394 15.7137L33.1137 17.2941ZM36.7852 18.3945C38.0895 18.3945 39.2491 18.1313 40.1234 17.462L38.9078 15.8739C38.5165 16.1734 37.8558 16.3945 36.7852 16.3945V18.3945ZM40.1234 17.462C41.0172 16.7779 41.4648 15.817 41.4648 14.6875H39.4648C39.4648 15.2299 39.2796 15.5893 38.9078 15.8739L40.1234 17.462ZM41.4648 14.6875C41.4648 13.5873 41.0623 12.6315 40.1977 11.9629L38.9742 13.545C39.2815 13.7826 39.4648 14.1158 39.4648 14.6875H41.4648ZM40.2042 11.968C39.4552 11.3787 38.2297 10.8834 36.6764 10.4339L36.1205 12.3551C37.6453 12.7963 38.5448 13.2072 38.9677 13.5399L40.2042 11.968ZM48.0352 19V20H49.0352V19H48.0352ZM45.7852 19H44.7852V20H45.7852V19ZM45.7852 1.9375V0.9375H44.7852V1.9375H45.7852ZM48.0352 1.9375H49.0352V0.9375H48.0352V1.9375ZM48.0352 18H45.7852V20H48.0352V18ZM46.7852 19V1.9375H44.7852V19H46.7852ZM45.7852 2.9375H48.0352V0.9375H45.7852V2.9375ZM47.0352 1.9375V19H49.0352V1.9375H47.0352ZM64.7578 16.7617L65.5778 17.3341L65.7578 17.0762V16.7617H64.7578ZM62.332 18.625L62.6986 19.5554L62.7022 19.554L62.332 18.625ZM55.0195 18.2617L54.4996 19.1159L54.5041 19.1187L55.0195 18.2617ZM52.5117 15.4727L51.6127 15.9105L51.615 15.9152L52.5117 15.4727ZM51.6094 11.2891L50.6093 11.2891L50.6094 11.2989L51.6094 11.2891ZM53.4023 3.82422L52.6407 3.1762L52.6386 3.17865L53.4023 3.82422ZM62.7656 3.07422L62.1217 3.83928L62.1249 3.84199L62.7656 3.07422ZM64.7578 6.94141V7.94141H65.9131L65.7475 6.79804L64.7578 6.94141ZM62.5078 6.94141L61.5248 7.12508L61.6774 7.94141H62.5078V6.94141ZM55.043 5.14844L54.2373 4.55605L54.2366 4.55707L55.043 5.14844ZM53.8711 9.74219L52.8711 9.7383V9.74219H53.8711ZM55.1836 15.707L54.3922 16.3183L54.3942 16.321L55.1836 15.707ZM62.5195 16.1641L63.2519 16.845L63.5195 16.5571V16.1641H62.5195ZM62.5195 12.332H63.5195V11.332H62.5195V12.332ZM58.5703 12.332H57.5703V13.332H58.5703V12.332ZM58.5703 10.5039V9.50391H57.5703V10.5039H58.5703ZM64.7578 10.5039H65.7578V9.50391H64.7578V10.5039ZM63.9379 16.1893C63.4835 16.8402 62.8396 17.3463 61.9618 17.696L62.7022 19.554C63.9026 19.0756 64.8759 18.3395 65.5778 17.3341L63.9379 16.1893ZM61.9655 17.6946C61.0753 18.0453 60.0013 18.2344 58.7227 18.2344V20.2344C60.194 20.2344 61.5262 20.0172 62.6986 19.5554L61.9655 17.6946ZM58.7227 18.2344C57.4939 18.2344 56.4414 17.95 55.5349 17.4048L54.5041 19.1187C55.7539 19.8704 57.1701 20.2344 58.7227 20.2344V18.2344ZM55.5395 17.4075C54.6338 16.8563 53.9238 16.0743 53.4085 15.0301L51.615 15.9152C52.2872 17.2773 53.249 18.3547 54.4996 19.1159L55.5395 17.4075ZM53.4108 15.0348C52.9007 13.9876 52.6238 12.744 52.6093 11.2792L50.6094 11.2989C50.6262 13.006 50.9508 14.5515 51.6127 15.9105L53.4108 15.0348ZM52.6094 11.2891V9.80078H50.6094V11.2891H52.6094ZM52.6094 9.80078C52.6094 7.37565 53.1733 5.64417 54.1661 4.46978L52.6386 3.17865C51.2407 4.83239 50.6094 7.08529 50.6094 9.80078H52.6094ZM54.164 4.47223C55.144 3.32033 56.531 2.70312 58.4648 2.70312V0.703125C56.0549 0.703125 54.0669 1.49998 52.6407 3.1762L54.164 4.47223ZM58.4648 2.70312C60.0723 2.70312 61.2582 3.11249 62.1217 3.83927L63.4096 2.30916C62.1012 1.20783 60.4199 0.703125 58.4648 0.703125V2.70312ZM62.1249 3.84199C62.986 4.5606 63.5541 5.60691 63.7681 7.08477L65.7475 6.79804C65.4772 4.93216 64.7171 3.40034 63.4064 2.30645L62.1249 3.84199ZM64.7578 5.94141H62.5078V7.94141H64.7578V5.94141ZM63.4908 6.75773C63.2506 5.47236 62.7243 4.38964 61.8268 3.63571C60.9278 2.88038 59.7749 2.55469 58.4766 2.55469V4.55469C59.4438 4.55469 60.0957 4.79344 60.5403 5.16703C60.9867 5.542 61.3431 6.15264 61.5248 7.12508L63.4908 6.75773ZM58.4766 2.55469C56.7029 2.55469 55.2359 3.19793 54.2373 4.55605L55.8486 5.74083C56.4125 4.97394 57.2346 4.55469 58.4766 4.55469V2.55469ZM54.2366 4.55707C53.2873 5.85148 52.8793 7.62528 52.8711 9.7383L54.8711 9.74608C54.8785 7.84347 55.2517 6.55477 55.8494 5.7398L54.2366 4.55707ZM52.8711 9.74219V11.1367H54.8711V9.74219H52.8711ZM52.8711 11.1367C52.8711 13.1977 53.3427 14.9596 54.3922 16.3183L55.975 15.0957C55.2745 14.1889 54.8711 12.9038 54.8711 11.1367H52.8711ZM54.3942 16.321C55.4688 17.7026 56.9505 18.3945 58.7344 18.3945V16.3945C57.5339 16.3945 56.6484 15.9615 55.9729 15.0931L54.3942 16.321ZM58.7344 18.3945C59.649 18.3945 60.4868 18.2933 61.2333 18.0721L60.6651 16.1545C60.146 16.3083 59.5073 16.3945 58.7344 16.3945V18.3945ZM61.2333 18.0721C62.0226 17.8382 62.7056 17.4325 63.2519 16.845L61.7872 15.4831C61.5053 15.7863 61.1415 16.0133 60.6651 16.1545L61.2333 18.0721ZM63.5195 16.1641V12.332H61.5195V16.1641H63.5195ZM62.5195 11.332H58.5703V13.332H62.5195V11.332ZM59.5703 12.332V10.5039H57.5703V12.332H59.5703ZM58.5703 11.5039H64.7578V9.50391H58.5703V11.5039ZM63.7578 10.5039V16.7617H65.7578V10.5039H63.7578ZM81.6328 19V20H82.6328V19H81.6328ZM79.3711 19L78.5339 19.5469L78.8299 20H79.3711V19ZM70.7812 5.85156L71.6184 5.30463L69.7812 2.49247V5.85156H70.7812ZM70.7812 19V20H71.7812V19H70.7812ZM68.5195 19H67.5195V20H68.5195V19ZM68.5195 1.9375V0.9375H67.5195V1.9375H68.5195ZM70.7812 1.9375L71.6189 1.39123L71.3229 0.9375H70.7812V1.9375ZM79.3945 15.1445L78.5569 15.6908L80.3945 18.5085V15.1445H79.3945ZM79.3945 1.9375V0.9375H78.3945V1.9375H79.3945ZM81.6328 1.9375H82.6328V0.9375H81.6328V1.9375ZM81.6328 18H79.3711V20H81.6328V18ZM80.2083 18.4531L71.6184 5.30463L69.9441 6.39849L78.5339 19.5469L80.2083 18.4531ZM69.7812 5.85156V19H71.7812V5.85156H69.7812ZM70.7812 18H68.5195V20H70.7812V18ZM69.5195 19V1.9375H67.5195V19H69.5195ZM68.5195 2.9375H70.7812V0.9375H68.5195V2.9375ZM69.9436 2.48377L78.5569 15.6908L80.2321 14.5983L71.6189 1.39123L69.9436 2.48377ZM80.3945 15.1445V1.9375H78.3945V15.1445H80.3945ZM79.3945 2.9375H81.6328V0.9375H79.3945V2.9375ZM80.6328 1.9375V19H82.6328V1.9375H80.6328ZM95.2734 11.1133V12.1133H96.2734V11.1133H95.2734ZM87.8789 11.1133V10.1133H86.8789V11.1133H87.8789ZM87.8789 17.1602H86.8789V18.1602H87.8789V17.1602ZM96.4688 17.1602H97.4688V16.1602H96.4688V17.1602ZM96.4688 19V20H97.4688V19H96.4688ZM85.6289 19H84.6289V20H85.6289V19ZM85.6289 1.9375V0.9375H84.6289V1.9375H85.6289ZM96.3516 1.9375H97.3516V0.9375H96.3516V1.9375ZM96.3516 3.78906V4.78906H97.3516V3.78906H96.3516ZM87.8789 3.78906V2.78906H86.8789V3.78906H87.8789ZM87.8789 9.27344H86.8789V10.2734H87.8789V9.27344ZM95.2734 9.27344H96.2734V8.27344H95.2734V9.27344ZM95.2734 10.1133H87.8789V12.1133H95.2734V10.1133ZM86.8789 11.1133V17.1602H88.8789V11.1133H86.8789ZM87.8789 18.1602H96.4688V16.1602H87.8789V18.1602ZM95.4688 17.1602V19H97.4688V17.1602H95.4688ZM96.4688 18H85.6289V20H96.4688V18ZM86.6289 19V1.9375H84.6289V19H86.6289ZM85.6289 2.9375H96.3516V0.9375H85.6289V2.9375ZM95.3516 1.9375V3.78906H97.3516V1.9375H95.3516ZM96.3516 2.78906H87.8789V4.78906H96.3516V2.78906ZM86.8789 3.78906V9.27344H88.8789V3.78906H86.8789ZM87.8789 10.2734H95.2734V8.27344H87.8789V10.2734ZM94.2734 9.27344V11.1133H96.2734V9.27344H94.2734ZM105.527 12.0977L106.409 11.6249L106.126 11.0977H105.527V12.0977ZM101.52 12.0977V11.0977H100.52V12.0977H101.52ZM101.52 19V20H102.52V19H101.52ZM99.2578 19H98.2578V20H99.2578V19ZM99.2578 1.9375V0.9375H98.2578V1.9375H99.2578ZM109.336 3.25L108.689 4.01251L108.692 4.01491L109.336 3.25ZM110.027 9.84766L109.221 9.25663L109.217 9.26187L110.027 9.84766ZM107.637 11.6172L107.28 10.6829L106.204 11.0936L106.762 12.1014L107.637 11.6172ZM111.645 18.8594H112.645V18.6011L112.519 18.3752L111.645 18.8594ZM111.645 19V20H112.645V19H111.645ZM109.23 19L108.349 19.4728L108.632 20H109.23V19ZM101.52 10.2578H100.52V11.2578H101.52V10.2578ZM107.637 9.39062L106.98 8.63639L106.976 8.64027L107.637 9.39062ZM107.684 4.64453L107.015 5.38784L107.019 5.39194L107.684 4.64453ZM104.965 3.78906L104.971 2.78906H104.965V3.78906ZM101.52 3.78906V2.78906H100.52V3.78906H101.52ZM105.527 11.0977H101.52V13.0977H105.527V11.0977ZM100.52 12.0977V19H102.52V12.0977H100.52ZM101.52 18H99.2578V20H101.52V18ZM100.258 19V1.9375H98.2578V19H100.258ZM99.2578 2.9375H104.906V0.9375H99.2578V2.9375ZM104.906 2.9375C106.689 2.9375 107.901 3.34429 108.689 4.01251L109.983 2.48749C108.708 1.40571 106.967 0.9375 104.906 0.9375V2.9375ZM108.692 4.01491C109.454 4.65673 109.895 5.61907 109.895 7.07031H111.895C111.895 5.17781 111.296 3.59327 109.98 2.48509L108.692 4.01491ZM109.895 7.07031C109.895 7.93962 109.662 8.65401 109.221 9.25664L110.834 10.4387C111.549 9.46318 111.895 8.32601 111.895 7.07031H109.895ZM109.217 9.26187C108.775 9.8738 108.145 10.3528 107.28 10.6829L107.993 12.5514C109.175 12.1003 110.139 11.3996 110.838 10.4334L109.217 9.26187ZM106.762 12.1014L110.77 19.3436L112.519 18.3752L108.512 11.133L106.762 12.1014ZM110.645 18.8594V19H112.645V18.8594H110.645ZM111.645 18H109.23V20H111.645V18ZM110.112 18.5272L106.409 11.6249L104.646 12.5704L108.349 19.4728L110.112 18.5272ZM101.52 11.2578H104.977V9.25781H101.52V11.2578ZM104.977 11.2578C106.268 11.2578 107.413 10.9206 108.298 10.141L106.976 8.64027C106.548 9.01685 105.92 9.25781 104.977 9.25781V11.2578ZM108.293 10.1448C109.199 9.3564 109.633 8.2957 109.633 7.07031H107.633C107.633 7.78242 107.403 8.2686 106.98 8.6364L108.293 10.1448ZM109.633 7.07031C109.633 5.80563 109.245 4.69443 108.348 3.89712L107.019 5.39194C107.388 5.71963 107.633 6.22562 107.633 7.07031H109.633ZM108.353 3.90124C107.483 3.11844 106.303 2.79785 104.971 2.78908L104.958 4.78904C106.001 4.7959 106.634 5.04563 107.015 5.38783L108.353 3.90124ZM104.965 2.78906H101.52V4.78906H104.965V2.78906ZM100.52 3.78906V10.2578H102.52V3.78906H100.52Z" fill="black"/>
</svg>
