<svg width="151" height="56" viewBox="0 0 151 56" fill="none" xmlns="http://www.w3.org/2000/svg">
<path d="M8.25 48.9805H18.8945C21.9493 48.9805 24.2901 48.1955 25.9785 46.6826L8.25 48.9805ZM8.25 48.9805V31.5586H19C22.2844 31.5586 24.6545 32.3145 26.2026 33.7382C27.7428 35.1545 28.5547 37.311 28.5547 40.3047C28.5547 43.0476 27.6834 45.1526 25.9786 46.6825L8.25 48.9805ZM0.5 55V55.5H1H18.7539C24.2679 55.5 28.6088 54.1687 31.7057 51.4375C34.8073 48.7022 36.3398 44.9467 36.3398 40.2344C36.3398 37.1402 35.5041 34.4545 33.8159 32.2025C32.3933 30.2578 30.5231 28.8521 28.2203 27.9843C30.1048 26.9979 31.6453 25.7092 32.8309 24.1148L32.8327 24.1123C34.2578 22.1713 34.9688 19.9456 34.9688 17.4531C34.9688 12.8428 33.5227 9.28539 30.5671 6.87119C27.6514 4.47053 23.3452 3.3125 17.7344 3.3125H1H0.5V3.8125V55ZM24.6926 23.0447L24.6901 23.0468C23.0456 24.4282 20.8152 25.1445 17.9453 25.1445H8.25V9.86719H17.7344C21.0371 9.86719 23.4005 10.505 24.9137 11.6939L24.9137 11.694L24.9173 11.6967C26.3948 12.8365 27.1836 14.7011 27.1836 17.418C27.1836 19.8163 26.3476 21.6729 24.6926 23.0447ZM51.9062 55.5H52.4062V55V1V0.5H51.9062H45.4023H44.9023V1V55V55.5H45.4023H51.9062ZM69.4141 55.5H69.9141V55V16.9609V16.4609H69.4141H62.9102H62.4102V16.9609V55V55.5H62.9102H69.4141ZM62.961 3.86408L62.9609 3.86402L62.955 3.87083C62.2352 4.6973 61.8828 5.708 61.8828 6.87109C61.8828 8.03401 62.2353 9.03659 62.9604 9.84229L62.9603 9.84235L62.9665 9.84897C63.7447 10.6827 64.8566 11.0625 66.2148 11.0625C67.5731 11.0625 68.685 10.6827 69.4632 9.84897C70.2145 9.04397 70.582 8.03912 70.582 6.87109C70.582 5.70299 70.2147 4.68997 69.4687 3.86408C68.6917 3.00385 67.578 2.60938 66.2148 2.60938C64.8517 2.60938 63.738 3.00385 62.961 3.86408ZM116.242 9.86719H116.742V9.36719V3.8125V3.3125H116.242H76.6562H76.1562V3.8125V9.36719V9.86719H76.6562H92.5742V55V55.5H93.0742H99.7891H100.289V55V9.86719H116.242ZM149.578 49.6914V49.1914H149.078H127.827L148.423 21.8674L148.523 21.7337V21.5664V16.9609V16.4609H148.023H119.195H118.695V16.9609V22.3398V22.8398H119.195H138.865L118.479 49.918L118.379 50.0516V50.2188V55V55.5H118.879H149.078H149.578V55V49.6914Z" stroke="white"/>
</svg>

