<svg xmlns="http://www.w3.org/2000/svg" width="60.991" height="120.512" viewBox="0 0 60.991 120.512">
  <g id="next" transform="translate(-156.073 -2.493)">
    <g id="Group_32" data-name="Group 32" transform="translate(156.073 2.493)">
      <g id="Group_31" data-name="Group 31">
        <path id="Path_32" data-name="Path 32" d="M19.5,4.543C17.821,2.759,17,3.3,17,5.756V112.823c0,2.454.821,3,2.5,1.213l48.251-51.5a4.814,4.814,0,0,0,.138-6.5Z" transform="translate(-12.539 0.966)" fill="#ee5c4d"/>
        <path id="Path_33" data-name="Path 33" d="M21.362,123h0c-.549,0-5.362-.187-5.362-6.723V9.216c0-6.535,4.814-6.723,5.362-6.723a6.91,6.91,0,0,1,4.849,2.454l48.394,51.5a9.324,9.324,0,0,1-.138,12.607l-48.251,51.49A6.889,6.889,0,0,1,21.362,123ZM24.94,16.621l-.018,92.242L68.079,62.517Z" transform="translate(-16 -2.493)" fill="#ee5c4d"/>
      </g>
    </g>
  </g>
</svg>
