<svg id="iconfinder_ic_local_phone_48px_352510" xmlns="http://www.w3.org/2000/svg" width="48" height="48" viewBox="0 0 48 48">
  <path id="Path_24" data-name="Path 24" d="M0,0H48V48H0Z" fill="none"/>
  <path id="Path_25" data-name="Path 25" d="M13.25,21.59A30.12,30.12,0,0,0,26.43,34.76l4.4-4.41a2.007,2.007,0,0,1,2.03-.49A22.767,22.767,0,0,0,40,31a1.993,1.993,0,0,1,2,2v7a1.993,1.993,0,0,1-2,2A34,34,0,0,1,6,8,2,2,0,0,1,8,6h7a1.993,1.993,0,0,1,2,2,22.767,22.767,0,0,0,1.14,7.14,2.007,2.007,0,0,1-.49,2.03Z" fill="#fff"/>
</svg>
